<svg xmlns="http://www.w3.org/2000/svg" width="32" height="32" id="basket"><path style="isolation:auto;mix-blend-mode:normal" fill="none" stroke="#f8b84e" stroke-dashoffset="1.5" stroke-linecap="round" stroke-linejoin="round" stroke-width="1.5" d="M406.75 1230.499v-1.774c.035-5.867 4.835-10.613 10.75-10.613 5.912 0 10.71 4.74 10.75 10.604v1.783" color="#000" overflow="visible" transform="translate(-401.5 -1213.362)"></path><path style="isolation:auto;mix-blend-mode:normal" fill="#25b39e" d="M405 1231.362v6c0 2.77 2.23 5 5 5h15c2.77 0 5-2.23 5-5v-6h-25z" color="#000" overflow="visible" transform="translate(-401.5 -1213.362)"></path><path style="isolation:auto;mix-blend-mode:normal" fill="#f8b84e" d="M405 1229.362h25c.83 0 1.5.67 1.5 1.5 0 .831-.67 1.5-1.5 1.5h-25c-.83 0-1.5-.669-1.5-1.5 0-.83.67-1.5 1.5-1.5z" color="#000" overflow="visible" transform="translate(-401.5 -1213.362)"></path><g color="#000" transform="translate(-401.5 -1228.34)"><path style="isolation:auto;mix-blend-mode:normal" fill="#f05542" d="m419.097 1233.321-1.25.708 1.624 2.756.264-.966.985.259zm-2.873 0 1.25.708-1.624 2.756-.264-.966-.986.259z" overflow="visible"></path><path style="isolation:auto;mix-blend-mode:normal" fill="#f05542" d="M421.506 1234.876a3.476 3.476 0 0 0 0-3.536l-3.186.884.062.884-.062.884zm-7.692 0a3.476 3.476 0 0 1 0-3.536l3.186.884-.061.884.061.884z" overflow="visible"></path><path style="isolation:auto;mix-blend-mode:normal" fill="#323232" fill-opacity=".424" d="M416.609 1232.114a1.462 1.433 0 0 0-.41.994 1.462 1.433 0 0 0 .408.993l.393-.108-.06-.884.06-.884-.391-.108zm2.104 0-.393.108.061.884-.06.885.392.109a1.462 1.433 0 0 0 .41-.993 1.462 1.433 0 0 0-.41-.994z" overflow="visible"></path><ellipse style="isolation:auto;mix-blend-mode:normal" cx="417.66" cy="1233.108" fill="red" overflow="visible" rx="1.082" ry="1.061"></ellipse><path style="isolation:auto;mix-blend-mode:normal" fill="#323232" fill-opacity=".424" d="m416.998 1233.944.002.048-1.4.39-.155.263 1.85-.314.114-.193c-.15-.035-.29-.1-.412-.194zm1.325 0-.002.048 1.4.39.156.263-1.85-.314-.115-.193c.15-.035.29-.1.412-.193z" overflow="visible"></path><ellipse cx="417.676" cy="1233.123" fill="#f05542" overflow="visible" rx="1.151" ry="1.128" style="isolation:auto;mix-blend-mode:normal"></ellipse></g><path fill="#60c5b8" fill-rule="evenodd" stroke="#60c5b8" stroke-linecap="round" stroke-linejoin="round" d="M9 23v3m7-3v3m7-3v3"></path></svg>