<svg xmlns="http://www.w3.org/2000/svg" width="163.839" height="163.839" fill-rule="evenodd" clip-rule="evenodd" image-rendering="optimizeQuality" shape-rendering="geometricPrecision" text-rendering="geometricPrecision" viewBox="0 0 1707 1707" id="book"><defs><linearGradient id="a" x1="722.098" x2="984.563" y1="9.937" y2="1696.72" gradientUnits="userSpaceOnUse"><stop offset="0" stop-color="#1e8ac6"></stop><stop offset=".302" stop-color="#834fbc"></stop><stop offset="1" stop-color="#e813b1"></stop></linearGradient></defs><path fill="url(#a)" fill-rule="nonzero" d="M419 0l869 0c31,0 60,13 81,34l0 0 0 0 0 0c21,21 34,50 34,82l0 98 0 1278 0 99c0,32 -13,61 -34,82l0 0 0 0 0 0c-21,21 -50,34 -81,34l-271 0 -327 0 -271 0c-32,0 -61,-13 -82,-34l0 0 0 0 0 0c-21,-22 -34,-50 -34,-82l0 -99 0 -1278 0 -98c0,-32 13,-61 34,-82l0 0 0 0 0 0c21,-21 50,-34 82,-34zm726 589l86 84c8,8 8,21 1,29 -8,7 -21,7 -29,0l-66 -66 0 52c0,11 -9,20 -20,20 -11,0 -20,-9 -20,-20l0 -285c0,-11 9,-20 20,-20 11,0 20,9 20,20l0 139 66 -66c8,-7 21,-7 29,1 7,7 7,20 -1,28l-86 84zm-636 99c0,11 -9,20 -20,20 -11,0 -20,-9 -20,-20l0 -79 0 -206c0,-11 9,-20 20,-20 11,0 20,9 20,20l0 137c12,-7 26,-11 41,-11 22,0 42,9 57,23 15,15 24,35 24,57 0,23 -9,43 -24,58 -15,14 -35,23 -57,23 -15,0 -29,-4 -41,-11l0 9zm447 -159c23,0 43,9 57,23 15,15 24,35 24,57 0,23 -9,43 -24,58 -14,14 -34,23 -57,23 -22,0 -42,-9 -57,-23 -15,-15 -24,-35 -24,-58 0,-22 9,-42 24,-57 15,-14 35,-23 57,-23zm29 52c-7,-8 -18,-12 -29,-12 -11,0 -21,4 -29,12 -7,7 -12,17 -12,28 0,12 5,22 12,29 8,8 18,12 29,12 11,0 22,-4 29,-12 7,-7 12,-17 12,-29 0,-11 -5,-21 -12,-28zm-232 -52c22,0 43,9 57,23 15,15 24,35 24,57 0,23 -9,43 -24,58 -14,14 -35,23 -57,23 -22,0 -42,-9 -57,-23 -15,-15 -24,-35 -24,-58 0,-22 9,-42 24,-57 15,-14 35,-23 57,-23zm29 52c-7,-8 -18,-12 -29,-12 -11,0 -21,4 -29,12 -7,7 -12,17 -12,28 0,12 5,22 12,29 8,8 18,12 29,12 11,0 22,-4 29,-12 7,-7 12,-17 12,-29 0,-11 -5,-21 -12,-28zm-203 0c-8,-8 -18,-12 -29,-12 -11,0 -21,4 -29,12 -7,7 -12,17 -12,28 0,12 5,22 12,29 8,8 18,12 29,12 11,0 21,-4 29,-12 7,-7 12,-17 12,-29 0,-11 -5,-21 -12,-28zm-108 382c-11,0 -20,-9 -20,-20 0,-11 9,-20 20,-20l765 0c11,0 20,9 20,20 0,11 -9,20 -20,20l-765 0zm0 180c-11,0 -20,-9 -20,-20 0,-11 9,-20 20,-20l765 0c11,0 20,9 20,20 0,11 -9,20 -20,20l-765 0zm0 181c-11,0 -20,-9 -20,-20 0,-11 9,-20 20,-20l765 0c11,0 20,9 20,20 0,11 -9,20 -20,20l-765 0zm526 343l0 -56 -287 0 0 56 287 0zm-327 0l0 -76c0,-11 9,-20 20,-20l327 0c11,0 20,9 20,20l0 76 251 0c20,0 39,-9 53,-23l0 0c14,-13 22,-32 22,-53l0 -79 -1020 0 0 79c0,21 9,40 22,53l1 0c13,14 32,23 53,23l251 0zm-327 -1473l1020 0 0 -78c0,-21 -8,-40 -22,-54l0 0c-14,-13 -33,-22 -53,-22l-869 0c-21,0 -40,9 -53,22l-1 0c-13,14 -22,33 -22,54l0 78zm1020 40l-1020 0 0 1238 1020 0 0 -1238z"></path></svg>