<svg xmlns="http://www.w3.org/2000/svg" viewBox="0 0 32 32" id="face-id"><g data-name="Layer 2"><path fill="#4c46c8" d="M10.05 28H5a1 1 0 0 1-1-1v-5.1a1 1 0 0 0-2 0V27a3 3 0 0 0 3 3h5.05a1 1 0 0 0 0-2zM29 20.9a1 1 0 0 0-1 1V27a1 1 0 0 1-1 1h-5.05a1 1 0 0 0 0 2H27a3 3 0 0 0 3-3v-5.1a1 1 0 0 0-1-1zM3 11a1 1 0 0 0 1-1V5a1 1 0 0 1 1-1h5.05a1 1 0 0 0 0-2H5a3 3 0 0 0-3 3v5a1 1 0 0 0 1 1zm24-9h-5.05a1 1 0 0 0 0 2H27a1 1 0 0 1 1 1v5a1 1 0 0 0 2 0V5a3 3 0 0 0-3-3z"></path><circle cx="12.5" cy="12.5" r="1.5" fill="#13104c"></circle><circle cx="19.5" cy="12.5" r="1.5" fill="#13104c"></circle><path fill="#13104c" d="M21.724 18.311a1 1 0 0 0-1.413-.035 6.251 6.251 0 0 1-8.622 0 1 1 0 1 0-1.378 1.45 8.249 8.249 0 0 0 11.378 0 1 1 0 0 0 .035-1.415Z"></path></g></svg>